Simulation
nRows=20
nColumns=15
endheader
time  TH_x TH_y TH_z SC_y  SC_z  SC_x  AC_y  AC_z  AC_x  GH_y  GH_z  GH_yy  EL_x  PS_y
5.745  0.000000  0.000000  0.000000  -49.42179702540787  18.71332585170508  35.276818542087916  71.06672669412963  -8.373762370752821  23.694146394422486  -5.160343525345549  61.099610388342875  -16.66261582220298  18.428703935746054  120.000000
5.80245  0.000000  0.000000  0.000000  -48.13916543849114  17.47473454642188  31.196806686985546  71.43298223158556  -8.171936170124793  23.896092623714583  -5.555626173227332  60.8539368538356  -15.908509285682573  18.717606014599816  120.000000
5.8599  0.000000  0.000000  0.000000  -46.667385078185035  15.777554419756603  26.3311759399229  71.71369168832412  -7.9337491210122275  24.165417481932614  -6.175706319191699  60.496949748407985  -14.58432989941389  19.10045640067552  120.000000
5.91735  0.000000  0.000000  0.000000  -45.13072360059601  13.589501572323137  20.93055616451251  71.78387047191333  -7.723748806911196  24.4422470863914  -7.006800179733592  60.08399826707302  -12.667574885686602  19.493072504128975  120.000000
5.9748  0.000000  0.000000  0.000000  -43.65016994350657  10.924678739891176  15.285280018324325  71.53035132693846  -7.6169814182721005  24.652209661894005  -7.994284666551658  59.67755671082485  -10.209359542994466  19.795669800171282  120.000000
6.03225  0.000000  0.000000  0.000000  -42.306452768377106  7.848860617468599  9.69909423131084  70.87770811904969  -7.684767398120346  24.715628920861626  -9.063779687735542  59.31138288225679  -7.344275145615544  19.924226059267372  120.000000
6.089700000000001  0.000000  0.000000  0.000000  -41.08987530044307  4.484057982842714  4.472338638872047  69.80268886533226  -7.98071003660449  24.55606579245885  -10.175703298772822  58.94956278195803  -4.262292422507591  19.82457240047038  120.000000
6.14715  0.000000  0.000000  0.000000  -39.895240425944486  1.0189252154391237  -0.10012856391037615  68.34079504269928  -8.527075265460303  24.113344134693033  -11.35249453048207  58.46337681367482  -1.1623805144366701  19.475617916420966  120.000000
6.2046  0.000000  0.000000  0.000000  -38.5917548876247  -2.2798893934381494  -3.7458553155906853  66.58833326267509  -9.30439048721126  23.358355413334703  -12.605261535646072  57.65329014552921  1.773259984535962  18.88481802766923  120.000000
6.26205  0.000000  0.000000  0.000000  -37.18283810057795  -5.082737373190738  -6.269723076741775  64.69941297722252  -10.250710800158732  22.309283134796658  -13.791845576479169  56.3065614251634  4.375775491684044  18.113410447256246  120.000000
6.3195  0.000000  0.000000  0.000000  -35.86492340109688  -7.081738585405034  -7.613996622176363  62.85069173003597  -11.281539833682324  21.016154298124487  -14.609879842530676  54.26495093550213  6.502052256856451  17.275847419472733  120.000000
6.37695  0.000000  0.000000  0.000000  -34.858750078805436  -8.083761468206205  -7.83968641511054  61.18615786998076  -12.34964248152119  19.5488336197009  -14.791126352251478  51.48070415976967  8.078133791054263  16.494071396321296  120.000000
6.4344  0.000000  0.000000  0.000000  -34.23953005646012  -8.094518495275176  -7.119032709526092  59.73785117879051  -13.333947459096859  17.919596410472185  -14.22348563501779  47.955692661485  9.099649975807672  15.844291232341925  120.000000
6.49185  0.000000  0.000000  0.000000  -33.947356866845666  -7.344203599198858  -5.762289019934169  58.41715714876317  -13.907899397848318  16.02225412764481  -12.825704298355157  43.67475751234499  9.54252445846665  15.36167530696445  120.000000
6.549300000000001  0.000000  0.000000  0.000000  -33.86660309127551  -6.14033475821355  -4.149906410679417  57.12023744358808  -13.755718902212177  13.812151954853315  -10.403283474604542  38.70108995807001  9.260391439705089  15.089133724134383  120.000000
6.60675  0.000000  0.000000  0.000000  -33.887734151645944  -4.730398810350849  -2.6410674520723085  55.76355283478216  -12.777341224736862  11.424757497247631  -6.645378778666538  33.249790490834336  7.962214372024164  15.053269486107018  120.000000
6.6642  0.000000  0.000000  0.000000  -34.00450128717574  -3.300014159288194  -1.5358873472656258  54.279137543193144  -11.058521393797594  9.068139367387154  -1.1024279470667846  27.693811346070373  5.181652880638026  15.245773738027726  120.000000
6.72165  0.000000  0.000000  0.000000  -34.28093169164425  -2.0199527355135696  -1.0227748729291688  52.6254143313669  -8.777109234999172  6.8974768365630394  6.769913084203216  22.52855421301312  0.31614926279340255  15.61185848382248  120.000000
6.7791  0.000000  0.000000  0.000000  -34.76189307702363  -0.9992213865979209  -1.1308319411400647  50.83644540224021  -6.145415862409738  5.01301499576783  17.465416358154172  18.233241892745696  -7.212228502849937  16.075743583972375  120.000000
6.83655  0.000000  0.000000  0.000000  -35.434413921225584  -0.27060317810051154  -1.7236968397218255  49.01992324828239  -3.3889616932433353  3.4788378806382063  31.02680171306329  15.134677089637382  -17.534212381405997  16.564123268299262  120.000000
